<?xml version="1.0" encoding="UTF-8" standalone="no"?>
<!DOCTYPE svg PUBLIC "-//W3C//DTD SVG 1.1//EN"
 "http://www.w3.org/Graphics/SVG/1.1/DTD/svg11.dtd">
<!-- Generated by graphviz version 2.38.0 (20140413.2041)
 -->
<!-- Title: G Pages: 1 -->
<svg width="486pt" height="888pt"
 viewBox="0.00 0.00 485.87 888.00" xmlns="http://www.w3.org/2000/svg" xmlns:xlink="http://www.w3.org/1999/xlink">
<g id="graph0" class="graph" transform="scale(1 1) rotate(0) translate(4 884)">
<title>G</title>
<polygon fill="white" stroke="none" points="-4,4 -4,-884 481.873,-884 481.873,4 -4,4"/>
<g id="clust1" class="cluster"><title>cluster_Global</title>
<path fill="none" stroke="gray" d="M362.873,-8C362.873,-8 457.873,-8 457.873,-8 463.873,-8 469.873,-14 469.873,-20 469.873,-20 469.873,-860 469.873,-860 469.873,-866 463.873,-872 457.873,-872 457.873,-872 362.873,-872 362.873,-872 356.873,-872 350.873,-866 350.873,-860 350.873,-860 350.873,-20 350.873,-20 350.873,-14 356.873,-8 362.873,-8"/>
<text text-anchor="middle" x="410.373" y="-859.2" font-family="Times,serif" font-size="11.00" fill="gray">Global</text>
</g>
<g id="clust2" class="cluster"><title>cluster_\Vibe</title>
<path fill="none" stroke="gray" d="M370.873,-16C370.873,-16 449.873,-16 449.873,-16 455.873,-16 461.873,-22 461.873,-28 461.873,-28 461.873,-832 461.873,-832 461.873,-838 455.873,-844 449.873,-844 449.873,-844 370.873,-844 370.873,-844 364.873,-844 358.873,-838 358.873,-832 358.873,-832 358.873,-28 358.873,-28 358.873,-22 364.873,-16 370.873,-16"/>
<text text-anchor="middle" x="410.373" y="-831.2" font-family="Times,serif" font-size="11.00" fill="gray">Vibe</text>
</g>
<g id="clust3" class="cluster"><title>cluster_\Vibe\Cookie</title>
<path fill="none" stroke="gray" d="M385.873,-744C385.873,-744 434.873,-744 434.873,-744 440.873,-744 446.873,-750 446.873,-756 446.873,-756 446.873,-804 446.873,-804 446.873,-810 440.873,-816 434.873,-816 434.873,-816 385.873,-816 385.873,-816 379.873,-816 373.873,-810 373.873,-804 373.873,-804 373.873,-756 373.873,-756 373.873,-750 379.873,-744 385.873,-744"/>
<text text-anchor="middle" x="410.373" y="-803.2" font-family="Times,serif" font-size="11.00" fill="gray">Cookie</text>
</g>
<g id="clust4" class="cluster"><title>cluster_\Vibe\App</title>
<path fill="none" stroke="gray" d="M387.373,-664C387.373,-664 433.373,-664 433.373,-664 439.373,-664 445.373,-670 445.373,-676 445.373,-676 445.373,-724 445.373,-724 445.373,-730 439.373,-736 433.373,-736 433.373,-736 387.373,-736 387.373,-736 381.373,-736 375.373,-730 375.373,-724 375.373,-724 375.373,-676 375.373,-676 375.373,-670 381.373,-664 387.373,-664"/>
<text text-anchor="middle" x="410.373" y="-723.2" font-family="Times,serif" font-size="11.00" fill="gray">App</text>
</g>
<g id="clust5" class="cluster"><title>cluster_\Vibe\Dice</title>
<path fill="none" stroke="gray" d="M387.373,-584C387.373,-584 433.373,-584 433.373,-584 439.373,-584 445.373,-590 445.373,-596 445.373,-596 445.373,-644 445.373,-644 445.373,-650 439.373,-656 433.373,-656 433.373,-656 387.373,-656 387.373,-656 381.373,-656 375.373,-650 375.373,-644 375.373,-644 375.373,-596 375.373,-596 375.373,-590 381.373,-584 387.373,-584"/>
<text text-anchor="middle" x="410.373" y="-643.2" font-family="Times,serif" font-size="11.00" fill="gray">Dice</text>
</g>
<g id="clust6" class="cluster"><title>cluster_\Vibe\Session</title>
<path fill="none" stroke="gray" d="M382.373,-504C382.373,-504 438.373,-504 438.373,-504 444.373,-504 450.373,-510 450.373,-516 450.373,-516 450.373,-564 450.373,-564 450.373,-570 444.373,-576 438.373,-576 438.373,-576 382.373,-576 382.373,-576 376.373,-576 370.373,-570 370.373,-564 370.373,-564 370.373,-516 370.373,-516 370.373,-510 376.373,-504 382.373,-504"/>
<text text-anchor="middle" x="410.373" y="-563.2" font-family="Times,serif" font-size="11.00" fill="gray">Session</text>
</g>
<g id="clust7" class="cluster"><title>cluster_\Vibe\Content</title>
<path fill="none" stroke="gray" d="M382.373,-424C382.373,-424 438.373,-424 438.373,-424 444.373,-424 450.373,-430 450.373,-436 450.373,-436 450.373,-484 450.373,-484 450.373,-490 444.373,-496 438.373,-496 438.373,-496 382.373,-496 382.373,-496 376.373,-496 370.373,-490 370.373,-484 370.373,-484 370.373,-436 370.373,-436 370.373,-430 376.373,-424 382.373,-424"/>
<text text-anchor="middle" x="410.373" y="-483.2" font-family="Times,serif" font-size="11.00" fill="gray">Content</text>
</g>
<g id="clust8" class="cluster"><title>cluster_\Vibe\Block</title>
<path fill="none" stroke="gray" d="M387.373,-344C387.373,-344 433.373,-344 433.373,-344 439.373,-344 445.373,-350 445.373,-356 445.373,-356 445.373,-404 445.373,-404 445.373,-410 439.373,-416 433.373,-416 433.373,-416 387.373,-416 387.373,-416 381.373,-416 375.373,-410 375.373,-404 375.373,-404 375.373,-356 375.373,-356 375.373,-350 381.373,-344 387.373,-344"/>
<text text-anchor="middle" x="410.373" y="-403.2" font-family="Times,serif" font-size="11.00" fill="gray">Block</text>
</g>
<g id="clust9" class="cluster"><title>cluster_\Vibe\Database</title>
<path fill="none" stroke="gray" d="M378.873,-264C378.873,-264 441.873,-264 441.873,-264 447.873,-264 453.873,-270 453.873,-276 453.873,-276 453.873,-324 453.873,-324 453.873,-330 447.873,-336 441.873,-336 441.873,-336 378.873,-336 378.873,-336 372.873,-336 366.873,-330 366.873,-324 366.873,-324 366.873,-276 366.873,-276 366.873,-270 372.873,-264 378.873,-264"/>
<text text-anchor="middle" x="410.373" y="-323.2" font-family="Times,serif" font-size="11.00" fill="gray">Database</text>
</g>
<g id="clust10" class="cluster"><title>cluster_\Vibe\Admin</title>
<path fill="none" stroke="gray" d="M387.373,-184C387.373,-184 433.373,-184 433.373,-184 439.373,-184 445.373,-190 445.373,-196 445.373,-196 445.373,-244 445.373,-244 445.373,-250 439.373,-256 433.373,-256 433.373,-256 387.373,-256 387.373,-256 381.373,-256 375.373,-250 375.373,-244 375.373,-244 375.373,-196 375.373,-196 375.373,-190 381.373,-184 387.373,-184"/>
<text text-anchor="middle" x="410.373" y="-243.2" font-family="Times,serif" font-size="11.00" fill="gray">Admin</text>
</g>
<g id="clust11" class="cluster"><title>cluster_\Vibe\Navbar</title>
<path fill="none" stroke="gray" d="M385.873,-104C385.873,-104 434.873,-104 434.873,-104 440.873,-104 446.873,-110 446.873,-116 446.873,-116 446.873,-164 446.873,-164 446.873,-170 440.873,-176 434.873,-176 434.873,-176 385.873,-176 385.873,-176 379.873,-176 373.873,-170 373.873,-164 373.873,-164 373.873,-116 373.873,-116 373.873,-110 379.873,-104 385.873,-104"/>
<text text-anchor="middle" x="410.373" y="-163.2" font-family="Times,serif" font-size="11.00" fill="gray">Navbar</text>
</g>
<g id="clust12" class="cluster"><title>cluster_\Vibe\Webshop</title>
<path fill="none" stroke="gray" d="M382.373,-24C382.373,-24 438.373,-24 438.373,-24 444.373,-24 450.373,-30 450.373,-36 450.373,-36 450.373,-84 450.373,-84 450.373,-90 444.373,-96 438.373,-96 438.373,-96 382.373,-96 382.373,-96 376.373,-96 370.373,-90 370.373,-84 370.373,-84 370.373,-36 370.373,-36 370.373,-30 376.373,-24 382.373,-24"/>
<text text-anchor="middle" x="410.373" y="-83.2" font-family="Times,serif" font-size="11.00" fill="gray">Webshop</text>
</g>
<!-- \\Vibe\\Cookie\\Cookie -->
<g id="node1" class="node"><title>\\Vibe\\Cookie\\Cookie</title>
<polygon fill="none" stroke="black" points="438.873,-788 381.873,-788 381.873,-752 438.873,-752 438.873,-788"/>
<text text-anchor="middle" x="410.373" y="-767.2" font-family="Courier,monospace" font-size="11.00">Cookie</text>
</g>
<!-- \\Vibe\\App\\App -->
<g id="node2" class="node"><title>\\Vibe\\App\\App</title>
<polygon fill="none" stroke="black" points="437.373,-708 383.373,-708 383.373,-672 437.373,-672 437.373,-708"/>
<text text-anchor="middle" x="410.373" y="-687.2" font-family="Courier,monospace" font-size="11.00">App</text>
</g>
<!-- \\Vibe\\Dice\\Dice -->
<g id="node3" class="node"><title>\\Vibe\\Dice\\Dice</title>
<polygon fill="none" stroke="black" points="437.373,-628 383.373,-628 383.373,-592 437.373,-592 437.373,-628"/>
<text text-anchor="middle" x="410.373" y="-607.2" font-family="Courier,monospace" font-size="11.00">Dice</text>
</g>
<!-- \\Vibe\\Session\\Session -->
<g id="node4" class="node"><title>\\Vibe\\Session\\Session</title>
<polygon fill="none" stroke="black" points="442.373,-548 378.373,-548 378.373,-512 442.373,-512 442.373,-548"/>
<text text-anchor="middle" x="410.373" y="-527.2" font-family="Courier,monospace" font-size="11.00">Session</text>
</g>
<!-- \\Vibe\\Content\\Content -->
<g id="node5" class="node"><title>\\Vibe\\Content\\Content</title>
<polygon fill="none" stroke="black" points="442.373,-468 378.373,-468 378.373,-432 442.373,-432 442.373,-468"/>
<text text-anchor="middle" x="410.373" y="-447.2" font-family="Courier,monospace" font-size="11.00">Content</text>
</g>
<!-- \\Vibe\\Block\\Block -->
<g id="node6" class="node"><title>\\Vibe\\Block\\Block</title>
<polygon fill="none" stroke="black" points="437.373,-388 383.373,-388 383.373,-352 437.373,-352 437.373,-388"/>
<text text-anchor="middle" x="410.373" y="-367.2" font-family="Courier,monospace" font-size="11.00">Block</text>
</g>
<!-- \\Vibe\\Database\\Database -->
<g id="node7" class="node"><title>\\Vibe\\Database\\Database</title>
<polygon fill="none" stroke="black" points="445.873,-308 374.873,-308 374.873,-272 445.873,-272 445.873,-308"/>
<text text-anchor="middle" x="410.373" y="-287.2" font-family="Courier,monospace" font-size="11.00">Database</text>
</g>
<!-- \\Vibe\\Admin\\Admin -->
<g id="node8" class="node"><title>\\Vibe\\Admin\\Admin</title>
<polygon fill="none" stroke="black" points="437.373,-228 383.373,-228 383.373,-192 437.373,-192 437.373,-228"/>
<text text-anchor="middle" x="410.373" y="-207.2" font-family="Courier,monospace" font-size="11.00">Admin</text>
</g>
<!-- \\Vibe\\Navbar\\Navbar -->
<g id="node9" class="node"><title>\\Vibe\\Navbar\\Navbar</title>
<polygon fill="none" stroke="black" points="438.873,-148 381.873,-148 381.873,-112 438.873,-112 438.873,-148"/>
<text text-anchor="middle" x="410.373" y="-127.2" font-family="Courier,monospace" font-size="11.00">Navbar</text>
</g>
<!-- \\Anax\\Common\\ConfigureInterface -->
<g id="node11" class="node"><title>\\Anax\\Common\\ConfigureInterface</title>
<ellipse fill="none" stroke="black" cx="151.437" cy="-157" rx="137.576" ry="18"/>
<text text-anchor="middle" x="151.437" y="-153.3" font-family="Times,serif" font-size="14.00" fill="gray">\Anax\Common\ConfigureInterface</text>
</g>
<!-- \\Vibe\\Navbar\\Navbar&#45;&gt;\\Anax\\Common\\ConfigureInterface -->
<g id="edge1" class="edge"><title>\\Vibe\\Navbar\\Navbar&#45;&gt;\\Anax\\Common\\ConfigureInterface</title>
<path fill="none" stroke="black" stroke-dasharray="1,5" d="M381.387,-132.941C354.175,-135.8 310.97,-140.341 269.387,-144.71"/>
<polygon fill="none" stroke="black" points="269.006,-141.231 259.427,-145.757 269.738,-148.193 269.006,-141.231"/>
</g>
<!-- \\Anax\\Common\\AppInjectableInterface -->
<g id="node12" class="node"><title>\\Anax\\Common\\AppInjectableInterface</title>
<ellipse fill="none" stroke="black" cx="151.437" cy="-103" rx="151.373" ry="18"/>
<text text-anchor="middle" x="151.437" y="-99.3" font-family="Times,serif" font-size="14.00" fill="gray">\Anax\Common\AppInjectableInterface</text>
</g>
<!-- \\Vibe\\Navbar\\Navbar&#45;&gt;\\Anax\\Common\\AppInjectableInterface -->
<g id="edge2" class="edge"><title>\\Vibe\\Navbar\\Navbar&#45;&gt;\\Anax\\Common\\AppInjectableInterface</title>
<path fill="none" stroke="black" stroke-dasharray="1,5" d="M381.387,-127.059C355.488,-124.338 315.104,-120.094 275.42,-115.924"/>
<polygon fill="none" stroke="black" points="275.666,-112.43 265.355,-114.866 274.934,-119.392 275.666,-112.43"/>
</g>
<!-- \\Vibe\\Webshop\\Webshop -->
<g id="node10" class="node"><title>\\Vibe\\Webshop\\Webshop</title>
<polygon fill="none" stroke="black" points="442.373,-68 378.373,-68 378.373,-32 442.373,-32 442.373,-68"/>
<text text-anchor="middle" x="410.373" y="-47.2" font-family="Courier,monospace" font-size="11.00">Webshop</text>
</g>
</g>
</svg>
