<?xml version="1.0" encoding="utf-8"?>
<!-- Generator: Adobe Illustrator 16.0.0, SVG Export Plug-In . SVG Version: 6.00 Build 0)  -->
<!DOCTYPE svg PUBLIC "-//W3C//DTD SVG 1.1//EN" "http://www.w3.org/Graphics/SVG/1.1/DTD/svg11.dtd">
<svg version="1.1" id="Layer_1" xmlns="http://www.w3.org/2000/svg" xmlns:xlink="http://www.w3.org/1999/xlink" x="0px" y="0px"
	 width="1357px" height="190px" viewBox="0 0 1357 190" enable-background="new 0 0 1357 190" xml:space="preserve">
<polygon points="147.676,0 1.176,190 43.426,190 147.676,54.5 252.259,190 293.676,190 "/>
<polygon fill="#EE2A7B" points="147.676,81 64.009,190 231.488,190 207.396,158.667 130.009,158.667 169.823,109.803 "/>
<g>
	<path d="M489.051,169.782c-13.252,13.252-29.029,19.878-47.328,19.878c-18.301,0-33.919-6.467-46.854-19.404
		c-12.938-12.936-19.404-28.554-19.404-46.854c0-18.299,6.467-33.917,19.404-46.854c12.936-12.936,28.554-19.404,46.854-19.404
		c18.299,0,33.917,6.469,46.854,19.404c12.936,12.938,19.404,28.555,19.404,46.854v56.793c0,2.604-0.928,4.833-2.78,6.686
		c-1.854,1.854-4.082,2.78-6.685,2.78s-4.833-0.926-6.685-2.78c-1.854-1.853-2.78-4.082-2.78-6.686V169.782z M441.723,76.074
		c-13.095,0-24.255,4.614-33.484,13.843s-13.843,20.391-13.843,33.484c0,13.095,4.614,24.256,13.843,33.484
		s20.39,13.844,33.484,13.844c13.093,0,24.255-4.615,33.484-13.844c9.229-9.229,13.844-20.39,13.844-33.484
		c0-13.093-4.615-24.255-13.844-33.484C465.979,80.688,454.816,76.074,441.723,76.074z"/>
	<path d="M526.913,66.608c0-2.603,0.926-4.831,2.781-6.685c1.853-1.853,4.082-2.781,6.685-2.781s4.831,0.928,6.685,2.781
		c1.852,1.854,2.78,4.082,2.78,6.685v7.691c11.832-11.436,26.03-17.156,42.595-17.156c16.958,0,31.453,6.016,43.482,18.043
		c12.028,12.03,18.043,26.524,18.043,43.482v61.525c0,2.604-0.928,4.833-2.781,6.686c-1.854,1.854-4.082,2.78-6.685,2.78
		s-4.833-0.926-6.685-2.78c-1.854-1.853-2.781-4.082-2.781-6.686v-61.525c0-11.753-4.162-21.789-12.482-30.112
		c-8.323-8.321-18.36-12.482-30.112-12.482c-11.754,0-21.791,4.162-30.112,12.482c-8.323,8.323-12.482,18.359-12.482,30.112v61.525
		c0,2.604-0.928,4.833-2.78,6.686c-1.854,1.854-4.082,2.78-6.685,2.78s-4.833-0.926-6.685-2.78
		c-1.854-1.853-2.781-4.082-2.781-6.686V66.608z"/>
	<path d="M782.481,169.782c-13.252,13.252-29.028,19.878-47.327,19.878c-18.301,0-33.92-6.467-46.855-19.404
		c-12.938-12.936-19.404-28.554-19.404-46.854c0-18.299,6.466-33.917,19.404-46.854c12.936-12.936,28.555-19.404,46.855-19.404
		c18.299,0,33.916,6.469,46.854,19.404c12.936,12.938,19.404,28.555,19.404,46.854v56.793c0,2.604-0.928,4.833-2.78,6.686
		c-1.854,1.854-4.082,2.78-6.685,2.78c-2.604,0-4.833-0.926-6.686-2.78c-1.854-1.853-2.78-4.082-2.78-6.686V169.782z
		 M735.154,76.074c-13.096,0-24.256,4.614-33.484,13.843c-9.229,9.229-13.844,20.391-13.844,33.484
		c0,13.095,4.614,24.256,13.844,33.484c9.229,9.229,20.389,13.844,33.484,13.844c13.092,0,24.255-4.615,33.483-13.844
		c9.229-9.229,13.844-20.39,13.844-33.484c0-13.093-4.614-24.255-13.844-33.484C759.409,80.688,748.246,76.074,735.154,76.074z"/>
	<path d="M864.831,123.283l-42.239-50.522c-1.5-1.734-2.248-3.786-2.248-6.153c0-2.603,0.926-4.831,2.78-6.685
		c1.853-1.853,4.082-2.781,6.685-2.781c2.604,0,4.93,0.987,6.98,2.958l40.348,48.392l40.347-48.392
		c2.05-1.971,4.378-2.958,6.98-2.958s4.831,0.928,6.685,2.781c1.854,1.854,2.781,4.082,2.781,6.685c0,2.367-0.751,4.418-2.248,6.153
		l-42.24,50.522l42.595,51.114c1.261,1.656,1.894,3.59,1.894,5.797c0,2.604-0.928,4.833-2.781,6.686
		c-1.854,1.854-4.082,2.78-6.685,2.78s-4.812-0.946-6.626-2.84l-40.701-48.747l-40.702,48.747c-1.815,1.894-4.022,2.84-6.626,2.84
		c-2.603,0-4.832-0.926-6.685-2.78c-1.854-1.853-2.78-4.082-2.78-6.686c0-2.207,0.63-4.141,1.893-5.797L864.831,123.283z"/>
	<path fill="#EE2A7B" d="M1023.852,9.815c0-2.603,0.926-4.831,2.78-6.685c1.853-1.852,4.082-2.78,6.685-2.78
		c2.604,0,4.831,0.928,6.686,2.78c1.853,1.854,2.78,4.082,2.78,6.685v160.914h9.466c2.603,0,4.83,0.928,6.685,2.78
		c1.853,1.854,2.78,4.082,2.78,6.685c0,2.604-0.928,4.833-2.78,6.686c-1.854,1.854-4.082,2.78-6.685,2.78h-18.932
		c-2.603,0-4.832-0.926-6.685-2.78c-1.854-1.853-2.78-4.082-2.78-6.686V9.815z"/>
	<path fill="#EE2A7B" d="M1111.407,28.747c0,3.235-1.165,6.016-3.49,8.341c-2.328,2.328-5.108,3.491-8.342,3.491
		c-3.235,0-6.016-1.163-8.342-3.491c-2.327-2.326-3.49-5.106-3.49-8.341c0-3.233,1.163-6.014,3.49-8.341
		c2.326-2.326,5.106-3.491,8.342-3.491c3.233,0,6.014,1.165,8.342,3.491C1110.242,22.732,1111.407,25.513,1111.407,28.747z
		 M1090.109,66.608c0-2.603,0.927-4.831,2.781-6.685c1.852-1.853,4.082-2.781,6.685-2.781c2.604,0,4.831,0.928,6.685,2.781
		c1.853,1.854,2.781,4.082,2.781,6.685v113.586c0,2.604-0.929,4.833-2.781,6.686c-1.854,1.854-4.081,2.78-6.685,2.78
		c-2.603,0-4.833-0.926-6.685-2.78c-1.854-1.853-2.781-4.082-2.781-6.686V66.608z"/>
	<path fill="#EE2A7B" d="M1203.695,170.729c2.604,0,4.831,0.928,6.686,2.78c1.853,1.854,2.78,4.082,2.78,6.685
		c0,2.604-0.928,4.833-2.78,6.686c-1.854,1.854-4.082,2.78-6.686,2.78c-31.552,0-47.327-15.775-47.327-47.327V76.074h-9.466
		c-2.603,0-4.832-0.926-6.685-2.781c-1.854-1.852-2.78-4.082-2.78-6.685s0.926-4.831,2.78-6.685
		c1.853-1.853,4.082-2.781,6.685-2.781h9.466V9.815c0-2.603,0.926-4.831,2.78-6.685c1.853-1.852,4.082-2.78,6.686-2.78
		c2.603,0,4.83,0.928,6.685,2.78c1.853,1.854,2.78,4.082,2.78,6.685v47.328h19.05c2.603,0,4.831,0.928,6.685,2.781
		c1.853,1.854,2.781,4.082,2.781,6.685s-0.929,4.833-2.781,6.685c-1.854,1.854-4.082,2.781-6.685,2.781h-19.05v66.259
		C1175.299,161.264,1184.765,170.729,1203.695,170.729z"/>
	<path fill="#EE2A7B" d="M1327.813,157.478c2.604,0,4.831,0.928,6.686,2.78c1.853,1.854,2.78,4.082,2.78,6.686
		c0,2.603-0.908,4.851-2.722,6.744c-12.228,10.648-26.621,15.973-43.187,15.973c-18.3,0-33.918-6.467-46.854-19.404
		c-12.938-12.936-19.404-28.554-19.404-46.854c0-18.299,6.467-33.917,19.404-46.854c12.936-12.936,28.554-19.404,46.854-19.404
		c18.299,0,33.917,6.469,46.854,19.404c12.936,12.938,19.404,28.555,19.404,46.854c0,2.604-0.928,4.833-2.78,6.686
		c-1.854,1.854-4.082,2.78-6.686,2.78h-103.292c1.734,9.071,6.073,17.078,13.016,24.019c9.229,9.229,20.39,13.844,33.483,13.844
		c11.832,0,22.008-3.746,30.526-11.24C1323.631,158.148,1325.604,157.478,1327.813,157.478z M1337.87,113.937
		c-1.736-9.07-6.075-17.077-13.016-24.019c-9.229-9.229-20.392-13.843-33.484-13.843c-13.094,0-24.255,4.614-33.483,13.843
		c-6.942,6.942-11.281,14.949-13.016,24.019H1337.87z"/>
</g>
</svg>
